<svg width="1440" height="720" viewBox="0 0 1440 720" fill="none" xmlns="http://www.w3.org/2000/svg">
<g opacity="0.16">
<rect x="0.25" y="0.25" width="71.5" height="71.5" stroke="#4945FF" stroke-width="0.5"/>
<rect width="72" height="72" fill="#AC56F5"/>
</g>
<g opacity="0.16">
<rect x="72.25" y="0.25" width="71.5" height="71.5" stroke="#4945FF" stroke-width="0.5"/>
</g>
<g opacity="0.16">
<rect x="144.25" y="0.25" width="71.5" height="71.5" stroke="#4945FF" stroke-width="0.5"/>
</g>
<g opacity="0.16">
<rect x="216.25" y="0.25" width="71.5" height="71.5" stroke="#4945FF" stroke-width="0.5"/>
</g>
<g opacity="0.16">
<rect x="288.25" y="0.25" width="71.5" height="71.5" stroke="#4945FF" stroke-width="0.5"/>
</g>
<g opacity="0.16">
<rect x="360.25" y="0.25" width="71.5" height="71.5" stroke="#4945FF" stroke-width="0.5"/>
</g>
<g opacity="0.16">
<rect x="432.25" y="0.25" width="71.5" height="71.5" stroke="#4945FF" stroke-width="0.5"/>
</g>
<g opacity="0.16">
<rect x="504.25" y="0.25" width="71.5" height="71.5" stroke="#4945FF" stroke-width="0.5"/>
</g>
<g opacity="0.16">
<rect x="576.25" y="0.25" width="71.5" height="71.5" stroke="#4945FF" stroke-width="0.5"/>
</g>
<g opacity="0.16">
<rect x="648.25" y="0.25" width="71.5" height="71.5" stroke="#4945FF" stroke-width="0.5"/>
</g>
<g opacity="0.16">
<rect x="720.25" y="0.25" width="71.5" height="71.5" stroke="#4945FF" stroke-width="0.5"/>
</g>
<g opacity="0.16">
<rect x="792.25" y="0.25" width="71.5" height="71.5" stroke="#4945FF" stroke-width="0.5"/>
</g>
<g opacity="0.16">
<rect x="864.25" y="0.25" width="71.5" height="71.5" stroke="#4945FF" stroke-width="0.5"/>
</g>
<g opacity="0.16">
<rect x="936.25" y="0.25" width="71.5" height="71.5" stroke="#4945FF" stroke-width="0.5"/>
</g>
<g opacity="0.16">
<rect x="1008.25" y="0.25" width="71.5" height="71.5" stroke="#4945FF" stroke-width="0.5"/>
</g>
<g opacity="0.16">
<rect x="1080.25" y="0.25" width="71.5" height="71.5" stroke="#4945FF" stroke-width="0.5"/>
</g>
<g opacity="0.16">
<rect x="1152.25" y="0.25" width="71.5" height="71.5" stroke="#4945FF" stroke-width="0.5"/>
</g>
<g opacity="0.16">
<rect x="1224.25" y="0.25" width="71.5" height="71.5" stroke="#4945FF" stroke-width="0.5"/>
</g>
<g opacity="0.16">
<rect x="1296.25" y="0.25" width="71.5" height="71.5" stroke="#4945FF" stroke-width="0.5"/>
</g>
<g opacity="0.16">
<rect x="1368.25" y="0.25" width="71.5" height="71.5" stroke="#4945FF" stroke-width="0.5"/>
<rect x="1368" width="72" height="72" fill="#AC56F5"/>
</g>
<g opacity="0.16">
<rect x="0.25" y="72.25" width="71.5" height="71.5" stroke="#4945FF" stroke-width="0.5"/>
</g>
<g opacity="0.16">
<rect x="72.25" y="72.25" width="71.5" height="71.5" stroke="#4945FF" stroke-width="0.5"/>
<path d="M72 72H144L72 144V72Z" fill="#AC56F5"/>
</g>
<g opacity="0.16">
<rect x="144.25" y="72.25" width="71.5" height="71.5" stroke="#4945FF" stroke-width="0.5"/>
</g>
<g opacity="0.16">
<rect x="216.25" y="72.25" width="71.5" height="71.5" stroke="#4945FF" stroke-width="0.5"/>
</g>
<g opacity="0.16">
<rect x="288.25" y="72.25" width="71.5" height="71.5" stroke="#4945FF" stroke-width="0.5"/>
</g>
<g opacity="0.16">
<rect x="360.25" y="72.25" width="71.5" height="71.5" stroke="#4945FF" stroke-width="0.5"/>
</g>
<g opacity="0.16">
<rect x="432.25" y="72.25" width="71.5" height="71.5" stroke="#4945FF" stroke-width="0.5"/>
</g>
<g opacity="0.16">
<rect x="504.25" y="72.25" width="71.5" height="71.5" stroke="#4945FF" stroke-width="0.5"/>
</g>
<g opacity="0.16">
<rect x="576.25" y="72.25" width="71.5" height="71.5" stroke="#4945FF" stroke-width="0.5"/>
</g>
<g opacity="0.16">
<rect x="648.25" y="72.25" width="71.5" height="71.5" stroke="#4945FF" stroke-width="0.5"/>
</g>
<g opacity="0.16">
<rect x="720.25" y="72.25" width="71.5" height="71.5" stroke="#4945FF" stroke-width="0.5"/>
</g>
<g opacity="0.16">
<rect x="792.25" y="72.25" width="71.5" height="71.5" stroke="#4945FF" stroke-width="0.5"/>
</g>
<g opacity="0.16">
<rect x="864.25" y="72.25" width="71.5" height="71.5" stroke="#4945FF" stroke-width="0.5"/>
</g>
<g opacity="0.16">
<rect x="936.25" y="72.25" width="71.5" height="71.5" stroke="#4945FF" stroke-width="0.5"/>
</g>
<g opacity="0.16">
<rect x="1008.25" y="72.25" width="71.5" height="71.5" stroke="#4945FF" stroke-width="0.5"/>
</g>
<g opacity="0.16">
<rect x="1080.25" y="72.25" width="71.5" height="71.5" stroke="#4945FF" stroke-width="0.5"/>
</g>
<g opacity="0.16">
<rect x="1152.25" y="72.25" width="71.5" height="71.5" stroke="#4945FF" stroke-width="0.5"/>
</g>
<g opacity="0.16">
<rect x="1224.25" y="72.25" width="71.5" height="71.5" stroke="#4945FF" stroke-width="0.5"/>
</g>
<g opacity="0.16">
<rect x="1296.25" y="72.25" width="71.5" height="71.5" stroke="#4945FF" stroke-width="0.5"/>
<path d="M1368 72H1296L1368 144V72Z" fill="#AC56F5"/>
</g>
<g opacity="0.16">
<rect x="1368.25" y="72.25" width="71.5" height="71.5" stroke="#4945FF" stroke-width="0.5"/>
</g>
<g opacity="0.16">
<rect x="0.25" y="144.25" width="71.5" height="71.5" stroke="#4945FF" stroke-width="0.5"/>
<path d="M0 144C31.4999 144 72 144 72 144C72 183.764 72 183.15 72 216C32.2355 216 0 183.764 0 144Z" fill="#AC56F5"/>
</g>
<g opacity="0.16">
<rect x="72.25" y="144.25" width="71.5" height="71.5" stroke="#4945FF" stroke-width="0.5"/>
</g>
<g opacity="0.16">
<rect x="144.25" y="144.25" width="71.5" height="71.5" stroke="#4945FF" stroke-width="0.5"/>
<circle cx="180" cy="180" r="36" fill="#AC56F5"/>
</g>
<g opacity="0.16">
<rect x="216.25" y="144.25" width="71.5" height="71.5" stroke="#4945FF" stroke-width="0.5"/>
</g>
<g opacity="0.16">
<rect x="288.25" y="144.25" width="71.5" height="71.5" stroke="#4945FF" stroke-width="0.5"/>
</g>
<g opacity="0.16">
<rect x="360.25" y="144.25" width="71.5" height="71.5" stroke="#4945FF" stroke-width="0.5"/>
</g>
<g opacity="0.16">
<rect x="432.25" y="144.25" width="71.5" height="71.5" stroke="#4945FF" stroke-width="0.5"/>
</g>
<g opacity="0.16">
<rect x="504.25" y="144.25" width="71.5" height="71.5" stroke="#4945FF" stroke-width="0.5"/>
</g>
<g opacity="0.16">
<rect x="576.25" y="144.25" width="71.5" height="71.5" stroke="#4945FF" stroke-width="0.5"/>
</g>
<g opacity="0.16">
<rect x="648.25" y="144.25" width="71.5" height="71.5" stroke="#4945FF" stroke-width="0.5"/>
</g>
<g opacity="0.16">
<rect x="720.25" y="144.25" width="71.5" height="71.5" stroke="#4945FF" stroke-width="0.5"/>
</g>
<g opacity="0.16">
<rect x="792.25" y="144.25" width="71.5" height="71.5" stroke="#4945FF" stroke-width="0.5"/>
</g>
<g opacity="0.16">
<rect x="864.25" y="144.25" width="71.5" height="71.5" stroke="#4945FF" stroke-width="0.5"/>
</g>
<g opacity="0.16">
<rect x="936.25" y="144.25" width="71.5" height="71.5" stroke="#4945FF" stroke-width="0.5"/>
</g>
<g opacity="0.16">
<rect x="1008.25" y="144.25" width="71.5" height="71.5" stroke="#4945FF" stroke-width="0.5"/>
</g>
<g opacity="0.16">
<rect x="1080.25" y="144.25" width="71.5" height="71.5" stroke="#4945FF" stroke-width="0.5"/>
</g>
<g opacity="0.16">
<rect x="1152.25" y="144.25" width="71.5" height="71.5" stroke="#4945FF" stroke-width="0.5"/>
</g>
<g opacity="0.16">
<rect x="1224.25" y="144.25" width="71.5" height="71.5" stroke="#4945FF" stroke-width="0.5"/>
<circle cx="1260" cy="180" r="36" fill="#AC56F5"/>
</g>
<g opacity="0.16">
<rect x="1296.25" y="144.25" width="71.5" height="71.5" stroke="#4945FF" stroke-width="0.5"/>
</g>
<g opacity="0.16">
<rect x="1368.25" y="144.25" width="71.5" height="71.5" stroke="#4945FF" stroke-width="0.5"/>
<path d="M1440 144C1408.5 144 1368 144 1368 144C1368 183.764 1368 183.15 1368 216C1407.76 216 1440 183.764 1440 144Z" fill="#AC56F5"/>
</g>
<g opacity="0.16">
<rect x="0.25" y="216.25" width="71.5" height="71.5" stroke="#4945FF" stroke-width="0.5"/>
</g>
<g opacity="0.16">
<rect x="72.25" y="216.25" width="71.5" height="71.5" stroke="#4945FF" stroke-width="0.5"/>
<path d="M108 216H72V288H144V252H108V216Z" fill="#AC56F5"/>
</g>
<g opacity="0.16">
<rect x="144.25" y="216.25" width="71.5" height="71.5" stroke="#4945FF" stroke-width="0.5"/>
</g>
<g opacity="0.16">
<rect x="216.25" y="216.25" width="71.5" height="71.5" stroke="#4945FF" stroke-width="0.5"/>
</g>
<g opacity="0.16">
<rect x="288.25" y="216.25" width="71.5" height="71.5" stroke="#4945FF" stroke-width="0.5"/>
</g>
<g opacity="0.16">
<rect x="360.25" y="216.25" width="71.5" height="71.5" stroke="#4945FF" stroke-width="0.5"/>
</g>
<g opacity="0.16">
<rect x="432.25" y="216.25" width="71.5" height="71.5" stroke="#4945FF" stroke-width="0.5"/>
</g>
<g opacity="0.16">
<rect x="504.25" y="216.25" width="71.5" height="71.5" stroke="#4945FF" stroke-width="0.5"/>
</g>
<g opacity="0.16">
<rect x="576.25" y="216.25" width="71.5" height="71.5" stroke="#4945FF" stroke-width="0.5"/>
</g>
<g opacity="0.16">
<rect x="648.25" y="216.25" width="71.5" height="71.5" stroke="#4945FF" stroke-width="0.5"/>
</g>
<g opacity="0.16">
<rect x="720.25" y="216.25" width="71.5" height="71.5" stroke="#4945FF" stroke-width="0.5"/>
</g>
<g opacity="0.16">
<rect x="792.25" y="216.25" width="71.5" height="71.5" stroke="#4945FF" stroke-width="0.5"/>
</g>
<g opacity="0.16">
<rect x="864.25" y="216.25" width="71.5" height="71.5" stroke="#4945FF" stroke-width="0.5"/>
</g>
<g opacity="0.16">
<rect x="936.25" y="216.25" width="71.5" height="71.5" stroke="#4945FF" stroke-width="0.5"/>
</g>
<g opacity="0.16">
<rect x="1008.25" y="216.25" width="71.5" height="71.5" stroke="#4945FF" stroke-width="0.5"/>
</g>
<g opacity="0.16">
<rect x="1080.25" y="216.25" width="71.5" height="71.5" stroke="#4945FF" stroke-width="0.5"/>
</g>
<g opacity="0.16">
<rect x="1152.25" y="216.25" width="71.5" height="71.5" stroke="#4945FF" stroke-width="0.5"/>
</g>
<g opacity="0.16">
<rect x="1224.25" y="216.25" width="71.5" height="71.5" stroke="#4945FF" stroke-width="0.5"/>
</g>
<g opacity="0.16">
<rect x="1296.25" y="216.25" width="71.5" height="71.5" stroke="#4945FF" stroke-width="0.5"/>
<path d="M1332 216H1368V288H1296V252H1332V216Z" fill="#AC56F5"/>
</g>
<g opacity="0.16">
<rect x="1368.25" y="216.25" width="71.5" height="71.5" stroke="#4945FF" stroke-width="0.5"/>
</g>
<g opacity="0.16">
<rect x="0.25" y="288.25" width="71.5" height="71.5" stroke="#4945FF" stroke-width="0.5"/>
<circle cx="36" cy="324" r="36" fill="#AC56F5"/>
</g>
<g opacity="0.16">
<rect x="72.25" y="288.25" width="71.5" height="71.5" stroke="#4945FF" stroke-width="0.5"/>
</g>
<g opacity="0.16">
<rect x="144.25" y="288.25" width="71.5" height="71.5" stroke="#4945FF" stroke-width="0.5"/>
</g>
<g opacity="0.16">
<rect x="216.25" y="288.25" width="71.5" height="71.5" stroke="#4945FF" stroke-width="0.5"/>
</g>
<g opacity="0.16">
<rect x="288.25" y="288.25" width="71.5" height="71.5" stroke="#4945FF" stroke-width="0.5"/>
</g>
<g opacity="0.16">
<rect x="360.25" y="288.25" width="71.5" height="71.5" stroke="#4945FF" stroke-width="0.5"/>
</g>
<g opacity="0.16">
<rect x="432.25" y="288.25" width="71.5" height="71.5" stroke="#4945FF" stroke-width="0.5"/>
</g>
<g opacity="0.16">
<rect x="504.25" y="288.25" width="71.5" height="71.5" stroke="#4945FF" stroke-width="0.5"/>
</g>
<g opacity="0.16">
<rect x="576.25" y="288.25" width="71.5" height="71.5" stroke="#4945FF" stroke-width="0.5"/>
</g>
<g opacity="0.16">
<rect x="648.25" y="288.25" width="71.5" height="71.5" stroke="#4945FF" stroke-width="0.5"/>
</g>
<g opacity="0.16">
<rect x="720.25" y="288.25" width="71.5" height="71.5" stroke="#4945FF" stroke-width="0.5"/>
</g>
<g opacity="0.16">
<rect x="792.25" y="288.25" width="71.5" height="71.5" stroke="#4945FF" stroke-width="0.5"/>
</g>
<g opacity="0.16">
<rect x="864.25" y="288.25" width="71.5" height="71.5" stroke="#4945FF" stroke-width="0.5"/>
</g>
<g opacity="0.16">
<rect x="936.25" y="288.25" width="71.5" height="71.5" stroke="#4945FF" stroke-width="0.5"/>
</g>
<g opacity="0.16">
<rect x="1008.25" y="288.25" width="71.5" height="71.5" stroke="#4945FF" stroke-width="0.5"/>
</g>
<g opacity="0.16">
<rect x="1080.25" y="288.25" width="71.5" height="71.5" stroke="#4945FF" stroke-width="0.5"/>
</g>
<g opacity="0.16">
<rect x="1152.25" y="288.25" width="71.5" height="71.5" stroke="#4945FF" stroke-width="0.5"/>
</g>
<g opacity="0.16">
<rect x="1224.25" y="288.25" width="71.5" height="71.5" stroke="#4945FF" stroke-width="0.5"/>
</g>
<g opacity="0.16">
<rect x="1296.25" y="288.25" width="71.5" height="71.5" stroke="#4945FF" stroke-width="0.5"/>
</g>
<g opacity="0.16">
<rect x="1368.25" y="288.25" width="71.5" height="71.5" stroke="#4945FF" stroke-width="0.5"/>
<circle cx="1404" cy="324" r="36" fill="#AC56F5"/>
</g>
<g opacity="0.16">
<rect x="0.25" y="360.25" width="71.5" height="71.5" stroke="#4945FF" stroke-width="0.5"/>
</g>
<g opacity="0.16">
<rect x="72.25" y="360.25" width="71.5" height="71.5" stroke="#4945FF" stroke-width="0.5"/>
<path d="M144 360C112.5 360 72 360 72 360C72 399.764 72 399.15 72 432C111.765 432 144 399.764 144 360Z" fill="#AC56F5"/>
</g>
<g opacity="0.16">
<rect x="144.25" y="360.25" width="71.5" height="71.5" stroke="#4945FF" stroke-width="0.5"/>
</g>
<g opacity="0.16">
<rect x="216.25" y="360.25" width="71.5" height="71.5" stroke="#4945FF" stroke-width="0.5"/>
</g>
<g opacity="0.16">
<rect x="288.25" y="360.25" width="71.5" height="71.5" stroke="#4945FF" stroke-width="0.5"/>
</g>
<g opacity="0.16">
<rect x="360.25" y="360.25" width="71.5" height="71.5" stroke="#4945FF" stroke-width="0.5"/>
</g>
<g opacity="0.16">
<rect x="432.25" y="360.25" width="71.5" height="71.5" stroke="#4945FF" stroke-width="0.5"/>
</g>
<g opacity="0.16">
<rect x="504.25" y="360.25" width="71.5" height="71.5" stroke="#4945FF" stroke-width="0.5"/>
</g>
<g opacity="0.16">
<rect x="576.25" y="360.25" width="71.5" height="71.5" stroke="#4945FF" stroke-width="0.5"/>
</g>
<g opacity="0.16">
<rect x="648.25" y="360.25" width="71.5" height="71.5" stroke="#4945FF" stroke-width="0.5"/>
</g>
<g opacity="0.16">
<rect x="720.25" y="360.25" width="71.5" height="71.5" stroke="#4945FF" stroke-width="0.5"/>
</g>
<g opacity="0.16">
<rect x="792.25" y="360.25" width="71.5" height="71.5" stroke="#4945FF" stroke-width="0.5"/>
</g>
<g opacity="0.16">
<rect x="864.25" y="360.25" width="71.5" height="71.5" stroke="#4945FF" stroke-width="0.5"/>
</g>
<g opacity="0.16">
<rect x="936.25" y="360.25" width="71.5" height="71.5" stroke="#4945FF" stroke-width="0.5"/>
</g>
<g opacity="0.16">
<rect x="1008.25" y="360.25" width="71.5" height="71.5" stroke="#4945FF" stroke-width="0.5"/>
</g>
<g opacity="0.16">
<rect x="1080.25" y="360.25" width="71.5" height="71.5" stroke="#4945FF" stroke-width="0.5"/>
</g>
<g opacity="0.16">
<rect x="1152.25" y="360.25" width="71.5" height="71.5" stroke="#4945FF" stroke-width="0.5"/>
</g>
<g opacity="0.16">
<rect x="1224.25" y="360.25" width="71.5" height="71.5" stroke="#4945FF" stroke-width="0.5"/>
</g>
<g opacity="0.16">
<rect x="1296.25" y="360.25" width="71.5" height="71.5" stroke="#4945FF" stroke-width="0.5"/>
<path d="M1296 360C1327.5 360 1368 360 1368 360C1368 399.764 1368 399.15 1368 432C1328.24 432 1296 399.764 1296 360Z" fill="#AC56F5"/>
</g>
<g opacity="0.16">
<rect x="1368.25" y="360.25" width="71.5" height="71.5" stroke="#4945FF" stroke-width="0.5"/>
</g>
<g opacity="0.16">
<rect x="0.25" y="432.25" width="71.5" height="71.5" stroke="#4945FF" stroke-width="0.5"/>
</g>
<g opacity="0.16">
<rect x="72.25" y="432.25" width="71.5" height="71.5" stroke="#4945FF" stroke-width="0.5"/>
</g>
<g opacity="0.16">
<rect x="144.25" y="432.25" width="71.5" height="71.5" stroke="#4945FF" stroke-width="0.5"/>
</g>
<g opacity="0.16">
<rect x="216.25" y="432.25" width="71.5" height="71.5" stroke="#4945FF" stroke-width="0.5"/>
</g>
<g opacity="0.16">
<rect x="288.25" y="432.25" width="71.5" height="71.5" stroke="#4945FF" stroke-width="0.5"/>
</g>
<g opacity="0.16">
<rect x="360.25" y="432.25" width="71.5" height="71.5" stroke="#4945FF" stroke-width="0.5"/>
</g>
<g opacity="0.16">
<rect x="432.25" y="432.25" width="71.5" height="71.5" stroke="#4945FF" stroke-width="0.5"/>
</g>
<g opacity="0.16">
<rect x="504.25" y="432.25" width="71.5" height="71.5" stroke="#4945FF" stroke-width="0.5"/>
</g>
<g opacity="0.16">
<rect x="576.25" y="432.25" width="71.5" height="71.5" stroke="#4945FF" stroke-width="0.5"/>
</g>
<g opacity="0.16">
<rect x="648.25" y="432.25" width="71.5" height="71.5" stroke="#4945FF" stroke-width="0.5"/>
</g>
<g opacity="0.16">
<rect x="720.25" y="432.25" width="71.5" height="71.5" stroke="#4945FF" stroke-width="0.5"/>
</g>
<g opacity="0.16">
<rect x="792.25" y="432.25" width="71.5" height="71.5" stroke="#4945FF" stroke-width="0.5"/>
</g>
<g opacity="0.16">
<rect x="864.25" y="432.25" width="71.5" height="71.5" stroke="#4945FF" stroke-width="0.5"/>
</g>
<g opacity="0.16">
<rect x="936.25" y="432.25" width="71.5" height="71.5" stroke="#4945FF" stroke-width="0.5"/>
</g>
<g opacity="0.16">
<rect x="1008.25" y="432.25" width="71.5" height="71.5" stroke="#4945FF" stroke-width="0.5"/>
</g>
<g opacity="0.16">
<rect x="1080.25" y="432.25" width="71.5" height="71.5" stroke="#4945FF" stroke-width="0.5"/>
</g>
<g opacity="0.16">
<rect x="1152.25" y="432.25" width="71.5" height="71.5" stroke="#4945FF" stroke-width="0.5"/>
</g>
<g opacity="0.16">
<rect x="1224.25" y="432.25" width="71.5" height="71.5" stroke="#4945FF" stroke-width="0.5"/>
</g>
<g opacity="0.16">
<rect x="1296.25" y="432.25" width="71.5" height="71.5" stroke="#4945FF" stroke-width="0.5"/>
</g>
<g opacity="0.16">
<rect x="1368.25" y="432.25" width="71.5" height="71.5" stroke="#4945FF" stroke-width="0.5"/>
</g>
<g opacity="0.16">
<rect x="0.25" y="504.25" width="71.5" height="71.5" stroke="#4945FF" stroke-width="0.5"/>
</g>
<g opacity="0.16">
<rect x="72.25" y="504.25" width="71.5" height="71.5" stroke="#4945FF" stroke-width="0.5"/>
</g>
<g opacity="0.16">
<rect x="144.25" y="504.25" width="71.5" height="71.5" stroke="#4945FF" stroke-width="0.5"/>
</g>
<g opacity="0.16">
<rect x="216.25" y="504.25" width="71.5" height="71.5" stroke="#4945FF" stroke-width="0.5"/>
</g>
<g opacity="0.16">
<rect x="288.25" y="504.25" width="71.5" height="71.5" stroke="#4945FF" stroke-width="0.5"/>
</g>
<g opacity="0.16">
<rect x="360.25" y="504.25" width="71.5" height="71.5" stroke="#4945FF" stroke-width="0.5"/>
</g>
<g opacity="0.16">
<rect x="432.25" y="504.25" width="71.5" height="71.5" stroke="#4945FF" stroke-width="0.5"/>
</g>
<g opacity="0.16">
<rect x="504.25" y="504.25" width="71.5" height="71.5" stroke="#4945FF" stroke-width="0.5"/>
</g>
<g opacity="0.16">
<rect x="576.25" y="504.25" width="71.5" height="71.5" stroke="#4945FF" stroke-width="0.5"/>
</g>
<g opacity="0.16">
<rect x="648.25" y="504.25" width="71.5" height="71.5" stroke="#4945FF" stroke-width="0.5"/>
</g>
<g opacity="0.16">
<rect x="720.25" y="504.25" width="71.5" height="71.5" stroke="#4945FF" stroke-width="0.5"/>
</g>
<g opacity="0.16">
<rect x="792.25" y="504.25" width="71.5" height="71.5" stroke="#4945FF" stroke-width="0.5"/>
</g>
<g opacity="0.16">
<rect x="864.25" y="504.25" width="71.5" height="71.5" stroke="#4945FF" stroke-width="0.5"/>
</g>
<g opacity="0.16">
<rect x="936.25" y="504.25" width="71.5" height="71.5" stroke="#4945FF" stroke-width="0.5"/>
</g>
<g opacity="0.16">
<rect x="1008.25" y="504.25" width="71.5" height="71.5" stroke="#4945FF" stroke-width="0.5"/>
</g>
<g opacity="0.16">
<rect x="1080.25" y="504.25" width="71.5" height="71.5" stroke="#4945FF" stroke-width="0.5"/>
</g>
<g opacity="0.16">
<rect x="1152.25" y="504.25" width="71.5" height="71.5" stroke="#4945FF" stroke-width="0.5"/>
</g>
<g opacity="0.16">
<rect x="1224.25" y="504.25" width="71.5" height="71.5" stroke="#4945FF" stroke-width="0.5"/>
</g>
<g opacity="0.16">
<rect x="1296.25" y="504.25" width="71.5" height="71.5" stroke="#4945FF" stroke-width="0.5"/>
</g>
<g opacity="0.16">
<rect x="1368.25" y="504.25" width="71.5" height="71.5" stroke="#4945FF" stroke-width="0.5"/>
</g>
<g opacity="0.16">
<rect x="0.25" y="576.25" width="71.5" height="71.5" stroke="#4945FF" stroke-width="0.5"/>
</g>
<g opacity="0.16">
<rect x="72.25" y="576.25" width="71.5" height="71.5" stroke="#4945FF" stroke-width="0.5"/>
</g>
<g opacity="0.16">
<rect x="144.25" y="576.25" width="71.5" height="71.5" stroke="#4945FF" stroke-width="0.5"/>
</g>
<g opacity="0.16">
<rect x="216.25" y="576.25" width="71.5" height="71.5" stroke="#4945FF" stroke-width="0.5"/>
</g>
<g opacity="0.16">
<rect x="288.25" y="576.25" width="71.5" height="71.5" stroke="#4945FF" stroke-width="0.5"/>
</g>
<g opacity="0.16">
<rect x="360.25" y="576.25" width="71.5" height="71.5" stroke="#4945FF" stroke-width="0.5"/>
</g>
<g opacity="0.16">
<rect x="432.25" y="576.25" width="71.5" height="71.5" stroke="#4945FF" stroke-width="0.5"/>
</g>
<g opacity="0.16">
<rect x="504.25" y="576.25" width="71.5" height="71.5" stroke="#4945FF" stroke-width="0.5"/>
</g>
<g opacity="0.16">
<rect x="576.25" y="576.25" width="71.5" height="71.5" stroke="#4945FF" stroke-width="0.5"/>
</g>
<g opacity="0.16">
<rect x="648.25" y="576.25" width="71.5" height="71.5" stroke="#4945FF" stroke-width="0.5"/>
</g>
<g opacity="0.16">
<rect x="720.25" y="576.25" width="71.5" height="71.5" stroke="#4945FF" stroke-width="0.5"/>
</g>
<g opacity="0.16">
<rect x="792.25" y="576.25" width="71.5" height="71.5" stroke="#4945FF" stroke-width="0.5"/>
</g>
<g opacity="0.16">
<rect x="864.25" y="576.25" width="71.5" height="71.5" stroke="#4945FF" stroke-width="0.5"/>
</g>
<g opacity="0.16">
<rect x="936.25" y="576.25" width="71.5" height="71.5" stroke="#4945FF" stroke-width="0.5"/>
</g>
<g opacity="0.16">
<rect x="1008.25" y="576.25" width="71.5" height="71.5" stroke="#4945FF" stroke-width="0.5"/>
</g>
<g opacity="0.16">
<rect x="1080.25" y="576.25" width="71.5" height="71.5" stroke="#4945FF" stroke-width="0.5"/>
</g>
<g opacity="0.16">
<rect x="1152.25" y="576.25" width="71.5" height="71.5" stroke="#4945FF" stroke-width="0.5"/>
</g>
<g opacity="0.16">
<rect x="1224.25" y="576.25" width="71.5" height="71.5" stroke="#4945FF" stroke-width="0.5"/>
</g>
<g opacity="0.16">
<rect x="1296.25" y="576.25" width="71.5" height="71.5" stroke="#4945FF" stroke-width="0.5"/>
</g>
<g opacity="0.16">
<rect x="1368.25" y="576.25" width="71.5" height="71.5" stroke="#4945FF" stroke-width="0.5"/>
</g>
<g opacity="0.16">
<rect x="0.25" y="648.25" width="71.5" height="71.5" stroke="#4945FF" stroke-width="0.5"/>
</g>
<g opacity="0.16">
<rect x="72.25" y="648.25" width="71.5" height="71.5" stroke="#4945FF" stroke-width="0.5"/>
</g>
<g opacity="0.16">
<rect x="144.25" y="648.25" width="71.5" height="71.5" stroke="#4945FF" stroke-width="0.5"/>
</g>
<g opacity="0.16">
<rect x="216.25" y="648.25" width="71.5" height="71.5" stroke="#4945FF" stroke-width="0.5"/>
</g>
<g opacity="0.16">
<rect x="288.25" y="648.25" width="71.5" height="71.5" stroke="#4945FF" stroke-width="0.5"/>
</g>
<g opacity="0.16">
<rect x="360.25" y="648.25" width="71.5" height="71.5" stroke="#4945FF" stroke-width="0.5"/>
</g>
<g opacity="0.16">
<rect x="432.25" y="648.25" width="71.5" height="71.5" stroke="#4945FF" stroke-width="0.5"/>
</g>
<g opacity="0.16">
<rect x="504.25" y="648.25" width="71.5" height="71.5" stroke="#4945FF" stroke-width="0.5"/>
</g>
<g opacity="0.16">
<rect x="576.25" y="648.25" width="71.5" height="71.5" stroke="#4945FF" stroke-width="0.5"/>
</g>
<g opacity="0.16">
<rect x="648.25" y="648.25" width="71.5" height="71.5" stroke="#4945FF" stroke-width="0.5"/>
</g>
<g opacity="0.16">
<rect x="720.25" y="648.25" width="71.5" height="71.5" stroke="#4945FF" stroke-width="0.5"/>
</g>
<g opacity="0.16">
<rect x="792.25" y="648.25" width="71.5" height="71.5" stroke="#4945FF" stroke-width="0.5"/>
</g>
<g opacity="0.16">
<rect x="864.25" y="648.25" width="71.5" height="71.5" stroke="#4945FF" stroke-width="0.5"/>
</g>
<g opacity="0.16">
<rect x="936.25" y="648.25" width="71.5" height="71.5" stroke="#4945FF" stroke-width="0.5"/>
</g>
<g opacity="0.16">
<rect x="1008.25" y="648.25" width="71.5" height="71.5" stroke="#4945FF" stroke-width="0.5"/>
</g>
<g opacity="0.16">
<rect x="1080.25" y="648.25" width="71.5" height="71.5" stroke="#4945FF" stroke-width="0.5"/>
</g>
<g opacity="0.16">
<rect x="1152.25" y="648.25" width="71.5" height="71.5" stroke="#4945FF" stroke-width="0.5"/>
</g>
<g opacity="0.16">
<rect x="1224.25" y="648.25" width="71.5" height="71.5" stroke="#4945FF" stroke-width="0.5"/>
</g>
<g opacity="0.16">
<rect x="1296.25" y="648.25" width="71.5" height="71.5" stroke="#4945FF" stroke-width="0.5"/>
</g>
<g opacity="0.16">
<rect x="1368.25" y="648.25" width="71.5" height="71.5" stroke="#4945FF" stroke-width="0.5"/>
</g>
<g opacity="0.16">
<rect x="216" y="215.5" width="144" height="1" fill="url(#paint0_linear_3278_25073)"/>
<rect x="287.5" y="286" width="144" height="1" transform="rotate(-90 287.5 286)" fill="url(#paint1_linear_3278_25073)"/>
<rect x="360" y="71.5" width="144" height="1" fill="url(#paint2_linear_3278_25073)"/>
<rect x="431.5" y="144" width="144" height="1" transform="rotate(-90 431.5 144)" fill="url(#paint3_linear_3278_25073)"/>
<rect x="288" y="575.5" width="144" height="1" fill="url(#paint4_linear_3278_25073)"/>
<rect x="359.5" y="648" width="144" height="1" transform="rotate(-90 359.5 648)" fill="url(#paint5_linear_3278_25073)"/>
<rect x="1080" y="215.5" width="144" height="1" fill="url(#paint6_linear_3278_25073)"/>
<rect x="1151.5" y="286" width="144" height="1" transform="rotate(-90 1151.5 286)" fill="url(#paint7_linear_3278_25073)"/>
<rect x="936" y="71.5" width="144" height="1" fill="url(#paint8_linear_3278_25073)"/>
<rect x="1007.5" y="144" width="144" height="1" transform="rotate(-90 1007.5 144)" fill="url(#paint9_linear_3278_25073)"/>
<rect x="936" y="577.5" width="144" height="1" fill="url(#paint10_linear_3278_25073)"/>
<rect x="1007.5" y="648" width="144" height="1" transform="rotate(-90 1007.5 648)" fill="url(#paint11_linear_3278_25073)"/>
</g>
<rect width="1440" height="720" fill="url(#paint12_linear_3278_25073)"/>
<rect width="1440" height="720" fill="url(#paint13_radial_3278_25073)"/>
<defs>
<linearGradient id="paint0_linear_3278_25073" x1="360" y1="216.502" x2="218.959" y2="215.529" gradientUnits="userSpaceOnUse">
<stop stop-color="white"/>
<stop offset="0.0001" stop-color="white" stop-opacity="0"/>
<stop offset="0.523026" stop-color="white"/>
<stop offset="1" stop-color="white" stop-opacity="0"/>
</linearGradient>
<linearGradient id="paint1_linear_3278_25073" x1="431.5" y1="287.002" x2="290.459" y2="286.029" gradientUnits="userSpaceOnUse">
<stop stop-color="white"/>
<stop offset="0.0001" stop-color="white" stop-opacity="0"/>
<stop offset="0.523026" stop-color="white"/>
<stop offset="1" stop-color="white" stop-opacity="0"/>
</linearGradient>
<linearGradient id="paint2_linear_3278_25073" x1="504" y1="72.5018" x2="362.959" y2="71.529" gradientUnits="userSpaceOnUse">
<stop stop-color="white"/>
<stop offset="0.0001" stop-color="white" stop-opacity="0"/>
<stop offset="0.523026" stop-color="white"/>
<stop offset="1" stop-color="white" stop-opacity="0"/>
</linearGradient>
<linearGradient id="paint3_linear_3278_25073" x1="575.5" y1="145.002" x2="434.459" y2="144.029" gradientUnits="userSpaceOnUse">
<stop stop-color="white"/>
<stop offset="0.0001" stop-color="white" stop-opacity="0"/>
<stop offset="0.523026" stop-color="white"/>
<stop offset="1" stop-color="white" stop-opacity="0"/>
</linearGradient>
<linearGradient id="paint4_linear_3278_25073" x1="432" y1="576.502" x2="290.959" y2="575.529" gradientUnits="userSpaceOnUse">
<stop stop-color="white"/>
<stop offset="0.0001" stop-color="white" stop-opacity="0"/>
<stop offset="0.523026" stop-color="white"/>
<stop offset="1" stop-color="white" stop-opacity="0"/>
</linearGradient>
<linearGradient id="paint5_linear_3278_25073" x1="503.5" y1="649.002" x2="362.459" y2="648.029" gradientUnits="userSpaceOnUse">
<stop stop-color="white"/>
<stop offset="0.0001" stop-color="white" stop-opacity="0"/>
<stop offset="0.523026" stop-color="white"/>
<stop offset="1" stop-color="white" stop-opacity="0"/>
</linearGradient>
<linearGradient id="paint6_linear_3278_25073" x1="1224" y1="216.502" x2="1082.96" y2="215.529" gradientUnits="userSpaceOnUse">
<stop stop-color="white"/>
<stop offset="0.0001" stop-color="white" stop-opacity="0"/>
<stop offset="0.523026" stop-color="white"/>
<stop offset="1" stop-color="white" stop-opacity="0"/>
</linearGradient>
<linearGradient id="paint7_linear_3278_25073" x1="1295.5" y1="287.002" x2="1154.46" y2="286.029" gradientUnits="userSpaceOnUse">
<stop stop-color="white"/>
<stop offset="0.0001" stop-color="white" stop-opacity="0"/>
<stop offset="0.523026" stop-color="white"/>
<stop offset="1" stop-color="white" stop-opacity="0"/>
</linearGradient>
<linearGradient id="paint8_linear_3278_25073" x1="1080" y1="72.5018" x2="938.959" y2="71.529" gradientUnits="userSpaceOnUse">
<stop stop-color="white"/>
<stop offset="0.0001" stop-color="white" stop-opacity="0"/>
<stop offset="0.523026" stop-color="white"/>
<stop offset="1" stop-color="white" stop-opacity="0"/>
</linearGradient>
<linearGradient id="paint9_linear_3278_25073" x1="1151.5" y1="145.002" x2="1010.46" y2="144.029" gradientUnits="userSpaceOnUse">
<stop stop-color="white"/>
<stop offset="0.0001" stop-color="white" stop-opacity="0"/>
<stop offset="0.523026" stop-color="white"/>
<stop offset="1" stop-color="white" stop-opacity="0"/>
</linearGradient>
<linearGradient id="paint10_linear_3278_25073" x1="1080" y1="578.502" x2="938.959" y2="577.529" gradientUnits="userSpaceOnUse">
<stop stop-color="white"/>
<stop offset="0.0001" stop-color="white" stop-opacity="0"/>
<stop offset="0.523026" stop-color="white"/>
<stop offset="1" stop-color="white" stop-opacity="0"/>
</linearGradient>
<linearGradient id="paint11_linear_3278_25073" x1="1151.5" y1="649.002" x2="1010.46" y2="648.029" gradientUnits="userSpaceOnUse">
<stop stop-color="white"/>
<stop offset="0.0001" stop-color="white" stop-opacity="0"/>
<stop offset="0.523026" stop-color="white"/>
<stop offset="1" stop-color="white" stop-opacity="0"/>
</linearGradient>
<linearGradient id="paint12_linear_3278_25073" x1="720" y1="0" x2="720" y2="720" gradientUnits="userSpaceOnUse">
<stop stop-color="#181826"/>
<stop offset="0.200011" stop-color="#181826" stop-opacity="0"/>
<stop offset="0.500026" stop-color="#181826" stop-opacity="0"/>
<stop offset="1" stop-color="#181826"/>
</linearGradient>
<radialGradient id="paint13_radial_3278_25073" cx="0" cy="0" r="1" gradientUnits="userSpaceOnUse" gradientTransform="translate(720 288) rotate(90) scale(432 864)">
<stop stop-color="#181826"/>
<stop offset="0.333293" stop-color="#181826"/>
<stop offset="1" stop-color="#181826" stop-opacity="0"/>
</radialGradient>
</defs>
</svg>
